<svg width="97" height="54" viewBox="0 0 97 54" fill="none" xmlns="http://www.w3.org/2000/svg">
<path d="M66.3933 37.8725C65.7482 37.8726 65.1176 37.682 64.5811 37.3247C64.0447 36.9675 63.6266 36.4596 63.3796 35.8654C63.1326 35.2712 63.0679 34.6173 63.1936 33.9864C63.3194 33.3555 63.6299 32.776 64.0859 32.3211C64.542 31.8662 65.1231 31.5563 65.7558 31.4307C66.3884 31.3051 67.0442 31.3694 67.6402 31.6154C68.2363 31.8615 68.7457 32.2782 69.1042 32.813C69.4627 33.3477 69.6541 33.9765 69.6542 34.6197C69.6533 35.4819 69.3094 36.3085 68.6981 36.9183C68.0868 37.528 67.2579 37.8712 66.3933 37.8725ZM30.3458 37.8725C29.7007 37.8726 29.0701 37.682 28.5337 37.3247C27.9972 36.9675 27.5791 36.4596 27.3321 35.8654C27.0852 35.2712 27.0204 34.6173 27.1462 33.9864C27.2719 33.3555 27.5824 32.776 28.0385 32.3211C28.4945 31.8662 29.0756 31.5563 29.7083 31.4307C30.3409 31.3051 30.9967 31.3694 31.5928 31.6154C32.1888 31.8615 32.6983 32.2782 33.0567 32.813C33.4152 33.3477 33.6066 33.9765 33.6068 34.6197C33.6059 35.4819 33.2622 36.3086 32.6508 36.9184C32.0395 37.5282 31.2105 37.8714 30.3458 37.8725ZM67.5628 18.2839L74.0804 7.02776C74.1696 6.87401 74.2274 6.70426 74.2508 6.5282C74.2741 6.35214 74.2625 6.17322 74.2165 6.00165C74.1705 5.83008 74.0911 5.66923 73.9827 5.52827C73.8744 5.38731 73.7393 5.26902 73.5851 5.18013C73.4309 5.09124 73.2606 5.03351 73.0841 5.01023C72.9075 4.98695 72.7281 4.99857 72.556 5.04444C72.3839 5.0903 72.2226 5.16951 72.0813 5.27754C71.9399 5.38557 71.8213 5.52031 71.7321 5.67406L65.1322 17.0724C60.0852 14.7756 54.417 13.4966 48.3689 13.4966C42.3209 13.4966 36.6532 14.7774 31.6063 17.0724L25.007 5.67406C24.9179 5.52027 24.7994 5.38547 24.6581 5.27735C24.5169 5.16924 24.3556 5.08993 24.1836 5.04395C24.0116 4.99797 23.8322 4.98622 23.6557 5.00938C23.4791 5.03253 23.3089 5.09014 23.1546 5.1789C23.0004 5.26767 22.8652 5.38586 22.7568 5.52672C22.6484 5.66758 22.5688 5.82835 22.5227 5.99986C22.4766 6.17138 22.4648 6.35026 22.488 6.52632C22.5113 6.70237 22.569 6.87213 22.658 7.02592L29.1763 18.2839C17.9842 24.3538 10.329 35.6517 9.20923 49H87.5298C86.4088 35.6517 78.7543 24.3538 67.5628 18.2839Z" fill="#3DDC84"/>
</svg>
