<svg width="47" height="54" viewBox="0 0 47 54" fill="none" xmlns="http://www.w3.org/2000/svg">
<path d="M45.6138 18.1851C41.7963 19.365 39.2976 24.7095 39.2976 28.5964C39.2976 33.5938 42.1433 38.9383 46.7937 40.1877C45.4749 44.6298 41.9351 50.1825 38.6729 52.5424C37.2847 53.5141 35.6189 53.9306 33.6755 53.9306C32.3567 53.9306 30.8991 53.653 28.9557 52.8895C27.3593 52.126 25.9017 51.7789 24.93 51.7789C24.097 51.7789 22.2924 52.3342 19.8631 53.3059C18.4749 53.7224 17.3644 54 16.6009 54C14.3798 54 12.4364 53.0977 10.4235 51.4319C4.24615 45.7404 0.706299 37.4113 0.706299 28.7352C0.706299 20.1285 6.18959 11.8689 14.4492 11.8689C16.9479 11.8689 18.822 12.4242 20.4878 13.2571C22.0842 14.2288 23.403 14.5758 24.8605 14.5758C26.0405 14.5758 27.4287 14.3676 28.7474 13.8123C31.9402 12.563 34.0919 11.8689 35.3413 11.8689C38.5341 11.8689 41.0328 12.91 43.115 14.7841C43.9479 15.617 44.8503 16.7275 45.6138 18.1851ZM23.4724 12.2159C23.4724 9.23136 24.6523 6.66324 26.6652 4.16452C28.7474 1.87404 31.4544 0.485859 34.4389 0C34.4389 3.05398 33.3978 6.10797 31.3156 8.53727C29.0251 11.036 26.5264 12.2159 23.4724 12.2159Z" fill="black"/>
</svg>
