<svg width="89" height="48" viewBox="0 0 89 48" fill="none" xmlns="http://www.w3.org/2000/svg">
<path d="M25.7919 22.5022C25.7919 22.5814 25.7529 22.6739 25.6751 22.7795C25.5972 22.8587 25.5064 22.8984 25.4025 22.8984H20.925C20.8212 22.8984 20.7304 22.8587 20.6525 22.7795C20.5746 22.6739 20.5357 22.5814 20.5357 22.5022V13.3508H0.678899C0.575073 13.3508 0.484225 13.3112 0.406355 13.2319C0.328486 13.1527 0.289551 13.0735 0.289551 12.9942V9.15142C0.289551 8.88731 0.419334 8.75525 0.678899 8.75525H25.4025C25.6621 8.75525 25.7919 8.88731 25.7919 9.15142V22.5022Z" fill="#FF6A29"/>
<path d="M63.2472 22.5022C63.2472 22.5814 63.2083 22.6739 63.1304 22.7795C63.0525 22.8587 62.9617 22.8984 62.8579 22.8984H58.3804C58.2765 22.8984 58.1857 22.8587 58.1078 22.7795C58.0299 22.6739 57.991 22.5814 57.991 22.5022V13.3508H38.1342C38.0304 13.3508 37.9396 13.3112 37.8617 13.2319C37.7838 13.1527 37.7449 13.0735 37.7449 12.9942V9.15142C37.7449 8.88731 37.8747 8.75525 38.1342 8.75525H62.8579C63.1174 8.75525 63.2472 8.88731 63.2472 9.15142V22.5022Z" fill="#FF6A29"/>
<path d="M88.7106 7.72522C88.7106 8.88731 88.5419 9.90413 88.2044 10.7757C87.867 11.6473 87.4517 12.4396 86.9585 13.1527C86.4654 13.8658 85.9203 14.5393 85.3233 15.1731C84.7522 15.807 84.2331 16.4805 83.7659 17.1936C83.2987 17.8803 82.9223 18.6594 82.6368 19.531C82.3512 20.3761 82.2474 21.3665 82.3253 22.5022C82.3253 22.6078 82.2864 22.7003 82.2085 22.7795C82.1306 22.8587 82.0527 22.8984 81.9749 22.8984H77.4584C77.3546 22.8984 77.2638 22.8587 77.1859 22.7795C77.134 22.6739 77.095 22.5814 77.0691 22.5022C77.0172 21.076 77.134 19.8215 77.4195 18.7386C77.705 17.6558 78.0814 16.705 78.5486 15.8862C79.0418 15.0411 79.5739 14.3016 80.1449 13.6677C80.716 13.0074 81.2351 12.3868 81.7023 11.8057C82.1955 11.1983 82.6108 10.604 82.9482 10.023C83.2857 9.41553 83.4544 8.75525 83.4544 8.04216C83.4544 6.9593 83.2078 6.11415 82.7146 5.5067C82.2474 4.89924 81.4557 4.59552 80.3396 4.59552C79.8205 4.59552 79.3792 4.68796 79.0158 4.87283C78.6524 5.0313 78.341 5.25579 78.0814 5.54631C77.8478 5.81042 77.6531 6.11415 77.4974 6.45749C77.3416 6.80084 77.2118 7.14418 77.108 7.48752C77.0561 7.80446 76.8874 7.9101 76.6019 7.80446L72.6305 6.2198C72.5007 6.19338 72.4099 6.12736 72.358 6.02171C72.3061 5.91607 72.3061 5.81042 72.358 5.70478C72.6435 4.91245 73.0069 4.17294 73.4481 3.48625C73.8894 2.77316 74.4345 2.1657 75.0834 1.66389C75.7583 1.13567 76.5499 0.726303 77.4584 0.435782C78.3669 0.145261 79.4311 0 80.6511 0C82.1306 0 83.3765 0.224494 84.3888 0.673481C85.4011 1.12247 86.2318 1.71672 86.8807 2.45622C87.5296 3.19573 87.9968 4.02768 88.2823 4.95207C88.5678 5.85004 88.7106 6.77443 88.7106 7.72522ZM79.7167 26.1073C80.6251 26.1073 81.4038 26.4374 82.0527 27.0977C82.7017 27.758 83.0261 28.5503 83.0261 29.4747C83.0261 30.4255 82.7017 31.2178 82.0527 31.8517C81.4038 32.512 80.6251 32.8421 79.7167 32.8421C78.8082 32.8421 78.0295 32.512 77.3806 31.8517C76.7317 31.2178 76.4072 30.4255 76.4072 29.4747C76.4072 28.5503 76.7317 27.758 77.3806 27.0977C78.0295 26.4374 78.8082 26.1073 79.7167 26.1073Z" fill="#FF6A29"/>
<path d="M23.379 47.3703C23.1327 47.5715 22.8499 47.7289 22.5306 47.8426C22.2113 47.9475 21.851 48 21.4496 48C20.957 48 20.4963 47.9125 20.0675 47.7376C19.6479 47.554 19.283 47.3091 18.9728 47.003C18.6626 46.6969 18.4163 46.3383 18.2339 45.9272C18.0605 45.5074 17.9739 45.0614 17.9739 44.5891C17.9739 44.1168 18.0605 43.6752 18.2339 43.2641C18.4163 42.853 18.6626 42.4945 18.9728 42.1884C19.283 41.8735 19.6479 41.6286 20.0675 41.4537C20.4963 41.27 20.957 41.1782 21.4496 41.1782C21.851 41.1782 22.2113 41.2307 22.5306 41.3356C22.8499 41.4406 23.1327 41.5936 23.379 41.7948V41.4406C23.379 41.3444 23.4201 41.2963 23.5022 41.2963H25.0895C25.1716 41.2963 25.2127 41.3444 25.2127 41.4406V47.7507C25.2127 47.8295 25.1716 47.8688 25.0895 47.8688H23.5022C23.4201 47.8688 23.379 47.8295 23.379 47.7507V47.3703ZM23.379 44.5891C23.379 44.3267 23.3334 44.0818 23.2422 43.8544C23.151 43.6271 23.0233 43.4303 22.859 43.2641C22.6948 43.0892 22.5033 42.9536 22.2843 42.8574C22.0745 42.7525 21.8464 42.7 21.6001 42.7C21.3447 42.7 21.1075 42.7525 20.8886 42.8574C20.6787 42.9536 20.4917 43.0892 20.3275 43.2641C20.1724 43.4303 20.0493 43.6271 19.958 43.8544C19.8668 44.0818 19.8212 44.3267 19.8212 44.5891C19.8212 44.8515 19.8668 45.0964 19.958 45.3238C20.0493 45.5512 20.1724 45.7523 20.3275 45.9272C20.4917 46.1021 20.6787 46.2421 20.8886 46.347C21.1075 46.4432 21.3447 46.4913 21.6001 46.4913C21.8464 46.4913 22.0745 46.4432 22.2843 46.347C22.5033 46.2421 22.6948 46.1021 22.859 45.9272C23.0233 45.7523 23.151 45.5512 23.2422 45.3238C23.3334 45.0964 23.379 44.8515 23.379 44.5891Z" fill="#FF6A29"/>
<path d="M31.5483 42.7C31.5483 42.7262 31.5347 42.7525 31.5073 42.7787C31.4799 42.8049 31.4434 42.8181 31.3978 42.8181H29.6873V45.7173C29.6873 45.9535 29.7512 46.1415 29.8789 46.2814C30.0066 46.4214 30.1708 46.4913 30.3715 46.4913C30.4992 46.4913 30.6406 46.4564 30.7957 46.3864C30.9599 46.3077 31.1241 46.194 31.2884 46.0453C31.3248 46.0103 31.3659 45.9972 31.4115 46.0059C31.4571 46.0147 31.489 46.0365 31.5073 46.0715L32.1778 47.0423C32.2143 47.121 32.2006 47.191 32.1368 47.2522C31.8722 47.4971 31.5575 47.6852 31.1926 47.8163C30.8277 47.9388 30.4399 48 30.0294 48C29.7466 48 29.4729 47.965 29.2084 47.8951C28.953 47.8163 28.7249 47.6983 28.5242 47.5408C28.3235 47.3747 28.1593 47.1691 28.0316 46.9243C27.913 46.6706 27.8537 46.3733 27.8537 46.0322V42.8181H26.54C26.5035 42.8181 26.4716 42.8049 26.4442 42.7787C26.4169 42.7525 26.4032 42.7262 26.4032 42.7V41.4406C26.4032 41.3968 26.4169 41.3619 26.4442 41.3356C26.4716 41.3094 26.499 41.2963 26.5263 41.2963H27.8537V39.2891C27.8537 39.2016 27.8993 39.1579 27.9905 39.1579H29.5642C29.5915 39.1579 29.6189 39.171 29.6463 39.1973C29.6736 39.2235 29.6873 39.2541 29.6873 39.2891V41.2963H31.3978C31.4982 41.2963 31.5483 41.3444 31.5483 41.4406V42.7Z" fill="#FF6A29"/>
<path d="M42.386 45.9141C42.386 46.2727 42.3085 46.5832 42.1534 46.8455C41.9983 47.1079 41.7931 47.3266 41.5376 47.5015C41.2913 47.6677 40.9994 47.7945 40.6618 47.8819C40.3334 47.9606 39.9913 48 39.6356 48C39.3254 48 39.0152 47.9694 38.705 47.9082C38.404 47.8469 38.1166 47.7595 37.843 47.6458C37.5784 47.5234 37.3412 47.3747 37.1314 47.1998C36.9307 47.0248 36.7756 46.8237 36.6661 46.5963C36.6479 46.57 36.6433 46.5394 36.6525 46.5045C36.6616 46.4695 36.6844 46.4432 36.7209 46.4257L38.0619 45.7173C38.1531 45.6998 38.2079 45.7261 38.2261 45.796C38.3538 46.0759 38.5454 46.2814 38.8008 46.4126C39.0654 46.5438 39.3254 46.6094 39.5808 46.6094C39.8454 46.6094 40.0734 46.5482 40.265 46.4257C40.4566 46.3033 40.5524 46.1328 40.5524 45.9141C40.5524 45.7304 40.4612 45.5905 40.2787 45.4943C40.1054 45.3894 39.8819 45.2975 39.6082 45.2188C39.3436 45.1401 39.0517 45.057 38.7324 44.9695C38.4222 44.8821 38.1303 44.764 37.8566 44.6153C37.5921 44.4579 37.3686 44.2524 37.1861 43.9988C37.0128 43.7451 36.9261 43.4128 36.9261 43.0017C36.9261 42.6781 36.9991 42.3983 37.1451 42.1621C37.291 41.926 37.4826 41.7292 37.7198 41.5718C37.9661 41.4143 38.2398 41.3006 38.5408 41.2307C38.851 41.152 39.1703 41.1126 39.4987 41.1126C39.7815 41.1126 40.0643 41.1432 40.3471 41.2044C40.6299 41.2569 40.8899 41.34 41.1271 41.4537C41.3734 41.5674 41.5878 41.7073 41.7703 41.8735C41.9618 42.0397 42.1078 42.2321 42.2081 42.4507C42.2264 42.477 42.2264 42.5076 42.2081 42.5426C42.199 42.5775 42.1762 42.6038 42.1397 42.6213L40.8534 43.2903C40.7804 43.3078 40.7303 43.2816 40.7029 43.2116C40.5843 42.9667 40.411 42.7874 40.1829 42.6737C39.964 42.5601 39.7496 42.5032 39.5398 42.5032C39.3299 42.5032 39.1475 42.5557 38.9924 42.6606C38.8464 42.7568 38.7735 42.8924 38.7735 43.0673C38.7735 43.251 38.8601 43.3953 39.0335 43.5002C39.2159 43.6052 39.4394 43.7014 39.704 43.7889C39.9777 43.8676 40.2696 43.9507 40.5797 44.0381C40.8899 44.1256 41.1773 44.2436 41.4418 44.3923C41.7155 44.541 41.939 44.7378 42.1123 44.9827C42.2948 45.2188 42.386 45.5293 42.386 45.9141Z" fill="#FF6A29"/>
<path d="M50.6238 44.5891C50.6238 45.0614 50.528 45.5074 50.3364 45.9272C50.1539 46.3383 49.8985 46.6969 49.5701 47.003C49.2417 47.3091 48.8585 47.554 48.4206 47.7376C47.9828 47.9125 47.5129 48 47.0112 48C46.5095 48 46.0351 47.9125 45.5881 47.7376C45.1502 47.554 44.767 47.3091 44.4386 47.003C44.1102 46.6969 43.8502 46.3383 43.6586 45.9272C43.4762 45.5074 43.385 45.0614 43.385 44.5891C43.385 44.1168 43.4762 43.6752 43.6586 43.2641C43.8502 42.853 44.1102 42.4945 44.4386 42.1884C44.767 41.8735 45.1502 41.6286 45.5881 41.4537C46.0351 41.27 46.5095 41.1782 47.0112 41.1782C47.5129 41.1782 47.9828 41.27 48.4206 41.4537C48.8585 41.6286 49.2417 41.8735 49.5701 42.1884C49.8985 42.4945 50.1539 42.853 50.3364 43.2641C50.528 43.6752 50.6238 44.1168 50.6238 44.5891ZM48.7901 44.5891C48.7901 44.3267 48.7445 44.0818 48.6533 43.8544C48.562 43.6271 48.4343 43.4303 48.2701 43.2641C48.1059 43.0892 47.9143 42.9536 47.6954 42.8574C47.4856 42.7525 47.2575 42.7 47.0112 42.7C46.7558 42.7 46.5186 42.7525 46.2996 42.8574C46.0898 42.9536 45.9028 43.0892 45.7386 43.2641C45.5835 43.4303 45.4604 43.6271 45.3691 43.8544C45.2779 44.0818 45.2323 44.3267 45.2323 44.5891C45.2323 44.8515 45.2779 45.0964 45.3691 45.3238C45.4604 45.5512 45.5835 45.7523 45.7386 45.9272C45.9028 46.1021 46.0898 46.2421 46.2996 46.347C46.5186 46.4432 46.7558 46.4913 47.0112 46.4913C47.2575 46.4913 47.4856 46.4432 47.6954 46.347C47.9143 46.2421 48.1059 46.1021 48.2701 45.9272C48.4343 45.7523 48.562 45.5512 48.6533 45.3238C48.7445 45.0964 48.7901 44.8515 48.7901 44.5891Z" fill="#FF6A29"/>
<path d="M57.4931 42.044C57.785 41.7642 58.1134 41.5499 58.4783 41.4012C58.8524 41.2525 59.2355 41.1782 59.6278 41.1782C59.8923 41.1782 60.1751 41.2263 60.4762 41.3225C60.7864 41.4187 61.0692 41.5718 61.3246 41.7817C61.58 41.9916 61.7899 42.2671 61.9541 42.6082C62.1274 42.9405 62.2141 43.3472 62.2141 43.8282V47.7507C62.2141 47.7857 62.2004 47.8163 62.173 47.8426C62.1456 47.8601 62.1183 47.8688 62.0909 47.8688H60.5036C60.4123 47.8688 60.3667 47.8295 60.3667 47.7507V44.1824C60.3667 43.7101 60.2801 43.3472 60.1067 43.0936C59.9425 42.8312 59.6688 42.7 59.2857 42.7C58.9208 42.7 58.638 42.8312 58.4373 43.0936C58.2366 43.3472 58.1362 43.7101 58.1362 44.1824V47.7507C58.1362 47.8295 58.0906 47.8688 57.9994 47.8688H56.4121C56.3847 47.8688 56.3573 47.8601 56.33 47.8426C56.3026 47.8163 56.2889 47.7857 56.2889 47.7507V44.1824C56.2889 43.7101 56.2022 43.3472 56.0289 43.0936C55.8556 42.8312 55.5819 42.7 55.2079 42.7C54.8339 42.7 54.5465 42.8312 54.3458 43.0936C54.1451 43.3472 54.0447 43.7101 54.0447 44.1824V47.7507C54.0447 47.7857 54.0311 47.8163 54.0037 47.8426C53.9763 47.8601 53.949 47.8688 53.9216 47.8688H52.3343C52.2521 47.8688 52.2111 47.8295 52.2111 47.7507V41.4406C52.2111 41.3444 52.2521 41.2963 52.3343 41.2963H53.9216C53.949 41.2963 53.9763 41.3094 54.0037 41.3356C54.0311 41.3619 54.0447 41.3968 54.0447 41.4406V41.703C54.1998 41.5455 54.4051 41.4187 54.6605 41.3225C54.916 41.2263 55.2079 41.1782 55.5363 41.1782C55.8556 41.1782 56.1931 41.2482 56.5489 41.3881C56.9047 41.5193 57.2194 41.7379 57.4931 42.044Z" fill="#FF6A29"/>
<path d="M69.1929 47.3703C68.9466 47.5715 68.6638 47.7289 68.3445 47.8426C68.0252 47.9475 67.6648 48 67.2634 48C66.7708 48 66.3101 47.9125 65.8814 47.7376C65.4617 47.554 65.0968 47.3091 64.7866 47.003C64.4765 46.6969 64.2302 46.3383 64.0477 45.9272C63.8744 45.5074 63.7877 45.0614 63.7877 44.5891C63.7877 44.1168 63.8744 43.6752 64.0477 43.2641C64.2302 42.853 64.4765 42.4945 64.7866 42.1884C65.0968 41.8735 65.4617 41.6286 65.8814 41.4537C66.3101 41.27 66.7708 41.1782 67.2634 41.1782C67.6648 41.1782 68.0252 41.2307 68.3445 41.3356C68.6638 41.4406 68.9466 41.5936 69.1929 41.7948V41.4406C69.1929 41.3444 69.2339 41.2963 69.316 41.2963H70.9034C70.9855 41.2963 71.0265 41.3444 71.0265 41.4406V47.7507C71.0265 47.8295 70.9855 47.8688 70.9034 47.8688H69.316C69.2339 47.8688 69.1929 47.8295 69.1929 47.7507V47.3703ZM69.1929 44.5891C69.1929 44.3267 69.1473 44.0818 69.056 43.8544C68.9648 43.6271 68.8371 43.4303 68.6729 43.2641C68.5087 43.0892 68.3171 42.9536 68.0982 42.8574C67.8883 42.7525 67.6603 42.7 67.414 42.7C67.1585 42.7 66.9213 42.7525 66.7024 42.8574C66.4926 42.9536 66.3056 43.0892 66.1413 43.2641C65.9863 43.4303 65.8631 43.6271 65.7719 43.8544C65.6807 44.0818 65.635 44.3267 65.635 44.5891C65.635 44.8515 65.6807 45.0964 65.7719 45.3238C65.8631 45.5512 65.9863 45.7523 66.1413 45.9272C66.3056 46.1021 66.4926 46.2421 66.7024 46.347C66.9213 46.4432 67.1585 46.4913 67.414 46.4913C67.6603 46.4913 67.8883 46.4432 68.0982 46.347C68.3171 46.2421 68.5087 46.1021 68.6729 45.9272C68.8371 45.7523 68.9648 45.5512 69.056 45.3238C69.1473 45.0964 69.1929 44.8515 69.1929 44.5891Z" fill="#FF6A29"/>
</svg>
